<svg width="20" height="20" viewBox="0 0 20 20" fill="none" xmlns="http://www.w3.org/2000/svg">
<path d="M18.75 5C18.75 4.33696 18.4866 3.70108 18.0178 3.23224C17.5489 2.7634 16.913 2.5 16.25 2.5H15.625V1.89258C15.625 1.55625 15.3664 1.26758 15.0301 1.25079C14.9456 1.24671 14.8611 1.25984 14.7818 1.28937C14.7026 1.31891 14.6301 1.36423 14.5688 1.42259C14.5076 1.48095 14.4588 1.55115 14.4255 1.62891C14.3922 1.70668 14.375 1.7904 14.375 1.875V2.5H5.625V1.89258C5.625 1.55625 5.36641 1.26758 5.03008 1.25079C4.94557 1.24671 4.86112 1.25984 4.78184 1.28937C4.70255 1.31891 4.63009 1.36423 4.56884 1.42259C4.50759 1.48095 4.45883 1.55115 4.42551 1.62891C4.39219 1.70668 4.37501 1.7904 4.375 1.875V2.5H3.75C3.08696 2.5 2.45107 2.7634 1.98223 3.23224C1.51339 3.70108 1.25 4.33696 1.25 5V5.46875C1.25 5.51019 1.26646 5.54994 1.29576 5.57924C1.32507 5.60854 1.36481 5.625 1.40625 5.625H18.5938C18.6352 5.625 18.6749 5.60854 18.7042 5.57924C18.7335 5.54994 18.75 5.51019 18.75 5.46875V5ZM1.25 16.25C1.25 16.913 1.51339 17.5489 1.98223 18.0178C2.45107 18.4866 3.08696 18.75 3.75 18.75H16.25C16.913 18.75 17.5489 18.4866 18.0178 18.0178C18.4866 17.5489 18.75 16.913 18.75 16.25V7.03125C18.75 6.98981 18.7335 6.95007 18.7042 6.92077C18.6749 6.89147 18.6352 6.875 18.5938 6.875H1.40625C1.36481 6.875 1.32507 6.89147 1.29576 6.92077C1.26646 6.95007 1.25 6.98981 1.25 7.03125V16.25Z" fill="black"/>
</svg>
