<svg width="20" height="20" viewBox="0 0 20 20" fill="none" xmlns="http://www.w3.org/2000/svg">
<path d="M6.875 17.5C7.56536 17.5 8.125 16.9403 8.125 16.25C8.125 15.5596 7.56536 15 6.875 15C6.18464 15 5.625 15.5596 5.625 16.25C5.625 16.9403 6.18464 17.5 6.875 17.5Z" fill="black"/>
<path d="M15.625 17.5C16.3154 17.5 16.875 16.9403 16.875 16.25C16.875 15.5596 16.3154 15 15.625 15C14.9346 15 14.375 15.5596 14.375 16.25C14.375 16.9403 14.9346 17.5 15.625 17.5Z" fill="black"/>
<path d="M17.8438 4.71795C17.7559 4.61055 17.6453 4.52405 17.5199 4.46472C17.3945 4.4054 17.2575 4.37475 17.1187 4.37498H5.23008L4.99063 3.01639C4.96509 2.87168 4.88938 2.74058 4.7768 2.64614C4.66421 2.5517 4.52195 2.49995 4.375 2.49998H1.875C1.70924 2.49998 1.55027 2.56583 1.43306 2.68304C1.31585 2.80025 1.25 2.95922 1.25 3.12498C1.25 3.29075 1.31585 3.44972 1.43306 3.56693C1.55027 3.68414 1.70924 3.74998 1.875 3.74998H3.85078L5.63438 13.8586C5.65991 14.0033 5.73562 14.1344 5.8482 14.2288C5.96079 14.3233 6.10305 14.375 6.25 14.375H16.25C16.4158 14.375 16.5747 14.3091 16.6919 14.1919C16.8092 14.0747 16.875 13.9157 16.875 13.75C16.875 13.5842 16.8092 13.4253 16.6919 13.308C16.5747 13.1908 16.4158 13.125 16.25 13.125H6.77422L6.55391 11.875H15.9937C16.2105 11.8747 16.4205 11.7996 16.5882 11.6622C16.7559 11.5249 16.871 11.3339 16.9141 11.1215L18.0391 5.49647C18.0662 5.36034 18.0627 5.21988 18.0289 5.08525C17.9952 4.95062 17.9319 4.82517 17.8438 4.71795Z" fill="black"/>
</svg>
