<svg width="20" height="20" viewBox="0 0 20 20" fill="none" xmlns="http://www.w3.org/2000/svg">
<path d="M2.47192 7.89062C2.36652 7.89158 2.26274 7.86463 2.17113 7.8125C2.10394 7.77473 2.04495 7.72394 1.99763 7.6631C1.9503 7.60226 1.91558 7.53259 1.8955 7.45817C1.87542 7.38375 1.87039 7.30607 1.88069 7.22968C1.89099 7.15329 1.91643 7.07972 1.95551 7.01328C2.70863 5.75625 5.00004 2.82227 10 2.82227C12.1668 2.82227 14.0672 3.39141 15.6457 4.51328C16.945 5.43398 17.6731 6.47617 18.02 6.97813C18.064 7.0414 18.0948 7.11283 18.1108 7.18822C18.1268 7.26361 18.1275 7.34143 18.113 7.4171C18.0984 7.49278 18.0688 7.56477 18.026 7.62886C17.9832 7.69294 17.928 7.74781 17.8637 7.79023C17.7322 7.87714 17.5721 7.90944 17.4172 7.88027C17.2623 7.8511 17.1249 7.76277 17.034 7.63398C16.4063 6.73125 14.4922 3.98438 10 3.98438C5.61527 3.98438 3.63285 6.51211 2.98715 7.59609C2.93527 7.68661 2.86016 7.76164 2.76958 7.81342C2.679 7.8652 2.57624 7.89185 2.47192 7.89062Z" fill="black"/>
<path d="M12.5193 19.375C12.4694 19.3756 12.4197 19.3699 12.3712 19.3582C8.74426 18.4597 7.38996 14.834 7.33488 14.6832L7.32629 14.65C7.2966 14.5453 6.56887 12.059 7.68605 10.6027C8.19816 9.93865 8.97707 9.59802 10.0056 9.59802C10.9618 9.59802 11.6517 9.89529 12.1259 10.5105C12.5165 11.0129 12.6728 11.6324 12.8239 12.2293C13.1415 13.4722 13.3708 14.125 14.6907 14.1922C15.2704 14.2215 15.6513 13.8824 15.8673 13.5937C16.4513 12.8066 16.5529 11.5234 16.1126 10.3906C15.547 8.92849 13.5396 6.17185 10.0001 6.17185C8.48918 6.17185 7.1009 6.6574 5.98762 7.5699C5.06613 8.32576 4.33605 9.39294 3.98449 10.4898C3.33254 12.532 4.18762 15.7422 4.19582 15.7715C4.21579 15.8462 4.22059 15.9241 4.20995 16.0007C4.19931 16.0773 4.17344 16.151 4.13386 16.2175C4.09429 16.2839 4.04181 16.3417 3.97953 16.3876C3.91725 16.4334 3.84641 16.4663 3.77121 16.4844C3.61928 16.5248 3.45757 16.504 3.32074 16.4266C3.1839 16.3492 3.08283 16.2213 3.03918 16.0703C3.00012 15.9238 2.08684 12.5 2.83996 10.1398C3.66027 7.5824 6.19191 5.00427 10.0013 5.00427C11.7618 5.00427 13.4251 5.60271 14.8134 6.73279C15.8884 7.61169 16.7665 8.79216 17.2259 9.97224C17.8099 11.4789 17.6532 13.1699 16.8279 14.2746C16.2779 15.0113 15.4946 15.3965 14.6271 15.3547C12.3669 15.2414 11.9607 13.6636 11.6646 12.5129C11.3599 11.3324 11.165 10.7633 10.0013 10.7633C9.36223 10.7633 8.9134 10.939 8.6341 11.3031C8.25324 11.8011 8.22355 12.5797 8.26574 13.1445C8.29344 13.538 8.36017 13.9278 8.46496 14.3082C8.55793 14.5426 9.76848 17.5113 12.6677 18.2297C12.7426 18.2474 12.8133 18.2799 12.8756 18.3252C12.9379 18.3705 12.9905 18.4277 13.0305 18.4935C13.0705 18.5593 13.097 18.6324 13.1085 18.7086C13.1199 18.7847 13.1162 18.8624 13.0974 18.9371C13.062 19.0632 12.9864 19.1742 12.882 19.2533C12.7776 19.3323 12.6502 19.3751 12.5193 19.375Z" fill="black"/>
<path d="M7.86378 19.1071C7.78249 19.1072 7.70199 19.091 7.62709 19.0594C7.5522 19.0278 7.48443 18.9814 7.42784 18.9231C5.97628 17.3996 5.15519 15.6961 4.8462 13.566V13.5547C4.67276 12.1446 4.92667 10.1481 6.17081 8.77542C7.08917 7.76252 8.38019 7.24768 10.0013 7.24768C11.9185 7.24768 13.4251 8.13909 14.3646 9.82151C15.0462 11.0438 15.1814 12.2617 15.1849 12.3117C15.192 12.3888 15.1839 12.4666 15.1609 12.5405C15.138 12.6145 15.1007 12.6832 15.0512 12.7427C15.0016 12.8022 14.9409 12.8513 14.8723 12.8873C14.8038 12.9233 14.7288 12.9454 14.6517 12.9524C14.4961 12.9693 14.3401 12.9243 14.2174 12.8271C14.0947 12.73 14.0151 12.5885 13.9958 12.4332C13.8929 11.7024 13.6564 10.9968 13.2982 10.3516C12.57 9.06682 11.4622 8.4137 9.99698 8.4137C8.73136 8.4137 7.74112 8.79456 7.05987 9.54651C6.07784 10.6305 5.888 12.3004 6.02276 13.4051C6.29347 15.2887 7.0173 16.7871 8.29542 18.1262C8.34877 18.1817 8.39041 18.2473 8.41787 18.3193C8.44534 18.3912 8.45806 18.4679 8.45529 18.5448C8.45252 18.6217 8.43432 18.6973 8.40175 18.7671C8.36919 18.8368 8.32293 18.8993 8.26573 18.9508C8.15558 19.0506 8.01244 19.1063 7.86378 19.1071Z" fill="black"/>
<path d="M14.5507 17.4289C13.2812 17.4289 12.2019 17.0773 11.3382 16.3785C9.60308 14.9805 9.40855 12.7035 9.39995 12.6074C9.38773 12.4497 9.43866 12.2936 9.54155 12.1734C9.64444 12.0532 9.79085 11.9788 9.94858 11.9666C10.1063 11.9544 10.2624 12.0053 10.3826 12.1082C10.5028 12.2111 10.5772 12.3575 10.5894 12.5152C10.5937 12.5488 10.7671 14.4113 12.1046 15.484C12.896 16.116 13.9539 16.3668 15.2574 16.2203C15.4132 16.2014 15.5701 16.245 15.6939 16.3414C15.8177 16.4379 15.8982 16.5795 15.9179 16.7352C15.9264 16.8121 15.9196 16.8899 15.8977 16.9641C15.8758 17.0384 15.8394 17.1075 15.7905 17.1675C15.7417 17.2275 15.6813 17.2771 15.6131 17.3136C15.5448 17.35 15.47 17.3725 15.3929 17.3797C15.1134 17.4123 14.8322 17.4287 14.5507 17.4289ZM15.5539 1.90586C15.0585 1.58359 13.3023 0.625 9.99995 0.625C6.53354 0.625 4.773 1.68398 4.38354 1.95312C4.35782 1.96891 4.33375 1.98723 4.31167 2.00781C4.30934 2.01007 4.30631 2.01145 4.30308 2.01172C4.24089 2.06602 4.19098 2.13295 4.1567 2.20805C4.12241 2.28316 4.10453 2.36471 4.10425 2.44727C4.10532 2.52466 4.12165 2.60107 4.1523 2.67214C4.18295 2.74321 4.22733 2.80753 4.28289 2.86142C4.33844 2.9153 4.40409 2.9577 4.47606 2.98617C4.54803 3.01464 4.62491 3.02864 4.70229 3.02734C4.82633 3.02726 4.94737 2.98923 5.04917 2.91836C5.06597 2.90586 6.5812 1.79258 10.0011 1.79258C13.421 1.79258 14.9445 2.90195 14.9609 2.91016C15.0649 2.98728 15.1912 3.02842 15.3207 3.02734C15.3981 3.02853 15.475 3.01441 15.547 2.9858C15.619 2.95718 15.6846 2.91463 15.7401 2.86059C15.7956 2.80654 15.8399 2.74207 15.8704 2.67088C15.9009 2.59968 15.9171 2.52316 15.9179 2.4457C15.918 2.32968 15.8833 2.2163 15.8184 2.12011C15.7536 2.02392 15.6614 1.94931 15.5539 1.90586Z" fill="black"/>
</svg>
