<svg width="20" height="20" viewBox="0 0 20 20" fill="none" xmlns="http://www.w3.org/2000/svg">
<path d="M15.3125 3.125H9.0625C8.48253 3.12562 7.92649 3.35629 7.51639 3.76639C7.10629 4.17649 6.87562 4.73253 6.875 5.3125V9.375H12.866L10.8082 7.3168C10.6959 7.19863 10.6343 7.04129 10.6364 6.87831C10.6385 6.71534 10.7041 6.55962 10.8194 6.44437C10.9346 6.32912 11.0903 6.26345 11.2533 6.26137C11.4163 6.25928 11.5736 6.32094 11.6918 6.4332L14.8168 9.5582C14.9339 9.6754 14.9997 9.83431 14.9997 10C14.9997 10.1657 14.9339 10.3246 14.8168 10.4418L11.6918 13.5668C11.5736 13.6791 11.4163 13.7407 11.2533 13.7386C11.0903 13.7365 10.9346 13.6709 10.8194 13.5556C10.7041 13.4404 10.6385 13.2847 10.6364 13.1217C10.6343 12.9587 10.6959 12.8014 10.8082 12.6832L12.866 10.625H6.875V14.6875C6.875 15.9395 8.19492 16.875 9.375 16.875H15.3125C15.8925 16.8744 16.4485 16.6437 16.8586 16.2336C17.2687 15.8235 17.4994 15.2675 17.5 14.6875V5.3125C17.4994 4.73253 17.2687 4.17649 16.8586 3.76639C16.4485 3.35629 15.8925 3.12562 15.3125 3.125ZM3.125 9.375C2.95924 9.375 2.80027 9.44085 2.68306 9.55806C2.56585 9.67527 2.5 9.83424 2.5 10C2.5 10.1658 2.56585 10.3247 2.68306 10.4419C2.80027 10.5592 2.95924 10.625 3.125 10.625H6.875V9.375H3.125Z" fill="black"/>
</svg>
