<svg width="20" height="20" viewBox="0 0 20 20" fill="none" xmlns="http://www.w3.org/2000/svg">
<path d="M9.375 18.75V17.3273C6.2707 17.1484 4.38477 15.5492 4.375 13.125H7.1875C7.25664 14.1539 8.11953 14.9395 9.375 15.0781V11.25L8.3293 10.9766C5.94648 10.4227 4.67148 9.04727 4.67148 6.98906C4.67148 4.56289 6.40938 2.97187 9.375 2.73438V1.25H10.625V2.73438C13.648 2.98047 15.2734 4.59922 15.3125 6.875H12.5C12.4703 5.93516 11.8816 5.18008 10.625 5.07812V8.67188L11.8289 8.95625C14.3598 9.51016 15.625 10.8203 15.625 12.9688C15.625 15.482 13.9164 17.1047 10.625 17.3172V18.75H9.375ZM9.375 8.4375V5.07812C8.29727 5.1375 7.52852 5.79961 7.52852 6.73945C7.52852 7.61055 8.16875 8.18008 9.375 8.4375ZM10.625 11.4844V15.0781C12.1152 15.018 12.8273 14.3391 12.8273 13.2902C12.8273 12.3301 12.1152 11.6836 10.625 11.4844Z" fill="black"/>
</svg>
