<svg width="20" height="20" viewBox="0 0 20 20" fill="none" xmlns="http://www.w3.org/2000/svg">
<path d="M18.2421 1.76566C18.0802 1.60185 17.8873 1.47189 17.6746 1.38337C17.462 1.29485 17.2338 1.24952 17.0035 1.25003H12.2015C11.8865 1.25062 11.5845 1.3754 11.3609 1.5973L1.76128 11.195C1.43372 11.5232 1.24976 11.968 1.24976 12.4317C1.24976 12.8954 1.43372 13.3402 1.76128 13.6684L6.33159 18.2387C6.6599 18.5664 7.10483 18.7505 7.5687 18.7505C8.03257 18.7505 8.4775 18.5664 8.80581 18.2387L18.4015 8.64496C18.6239 8.42174 18.7491 8.11978 18.75 7.80472V3.00003C18.7514 2.77089 18.7072 2.54376 18.62 2.33184C18.5328 2.11993 18.4044 1.92747 18.2421 1.76566ZM15 6.25003C14.7527 6.25003 14.511 6.17672 14.3055 6.03937C14.0999 5.90202 13.9397 5.7068 13.8451 5.47839C13.7505 5.24998 13.7257 4.99865 13.774 4.75617C13.8222 4.5137 13.9413 4.29097 14.1161 4.11615C14.2909 3.94134 14.5136 3.82228 14.7561 3.77405C14.9986 3.72582 15.2499 3.75058 15.4783 3.84519C15.7067 3.93979 15.9019 4.10001 16.0393 4.30557C16.1766 4.51113 16.25 4.75281 16.25 5.00003C16.25 5.33156 16.1183 5.6495 15.8838 5.88392C15.6494 6.11834 15.3315 6.25003 15 6.25003Z" fill="black"/>
</svg>
