<svg width="31" height="31" viewBox="0 0 31 31" fill="none" xmlns="http://www.w3.org/2000/svg">
<path d="M15.3201 2.8725C8.45658 2.8725 2.87256 8.45652 2.87256 15.32C2.87256 22.1835 8.45658 27.7675 15.3201 27.7675C22.1835 27.7675 27.7676 22.1835 27.7676 15.32C27.7676 8.45652 22.1835 2.8725 15.3201 2.8725ZM12.3147 9.86345C13.0729 9.05974 14.1399 8.6175 15.3201 8.6175C16.5002 8.6175 17.5576 9.06274 18.3188 9.87063C19.0902 10.6893 19.4654 11.7892 19.3769 12.9717C19.1997 15.32 17.3805 17.235 15.3201 17.235C13.2596 17.235 11.4368 15.32 11.2633 12.9711C11.1753 11.779 11.5499 10.6755 12.3147 9.86345ZM15.3201 25.8525C13.914 25.8534 12.5221 25.572 11.2268 25.0249C9.93159 24.4778 8.75939 23.6762 7.77975 22.6676C8.34082 21.8675 9.05571 21.1872 9.88266 20.6664C11.4081 19.6886 13.3386 19.15 15.3201 19.15C17.3015 19.15 19.232 19.6886 20.7557 20.6664C21.5833 21.1869 22.2988 21.8673 22.8604 22.6676C21.8808 23.6763 20.7086 24.478 19.4134 25.0251C18.1181 25.5722 16.7261 25.8536 15.3201 25.8525Z" fill="black"/>
</svg>
