<svg width="20" height="20" viewBox="0 0 20 20" fill="none" xmlns="http://www.w3.org/2000/svg">
<path d="M15.3846 1.66667H4.61538C4.41137 1.66667 4.21572 1.57887 4.07146 1.42259C3.9272 1.26631 3.84615 1.05435 3.84615 0.833333C3.84615 0.61232 3.9272 0.400358 4.07146 0.244078C4.21572 0.0877975 4.41137 0 4.61538 0H15.3846C15.5886 0 15.7843 0.0877975 15.9285 0.244078C16.0728 0.400358 16.1538 0.61232 16.1538 0.833333C16.1538 1.05435 16.0728 1.26631 15.9285 1.42259C15.7843 1.57887 15.5886 1.66667 15.3846 1.66667ZM16.9231 4.16667H3.07692C2.87291 4.16667 2.67725 4.07887 2.53299 3.92259C2.38874 3.76631 2.30769 3.55435 2.30769 3.33333C2.30769 3.11232 2.38874 2.90036 2.53299 2.74408C2.67725 2.5878 2.87291 2.5 3.07692 2.5H16.9231C17.1271 2.5 17.3227 2.5878 17.467 2.74408C17.6113 2.90036 17.6923 3.11232 17.6923 3.33333C17.6923 3.55435 17.6113 3.76631 17.467 3.92259C17.3227 4.07887 17.1271 4.16667 16.9231 4.16667ZM17.8428 20H2.15721C1.58528 19.9993 1.03695 19.7529 0.632535 19.3148C0.228118 18.8766 0.000636259 18.2826 0 17.663V7.33698C0.000636259 6.71738 0.228118 6.12337 0.632535 5.68525C1.03695 5.24713 1.58528 5.00069 2.15721 5H17.8428C18.4147 5.00069 18.963 5.24713 19.3675 5.68525C19.7719 6.12337 19.9994 6.71738 20 7.33698V17.663C19.9994 18.2826 19.7719 18.8766 19.3675 19.3148C18.963 19.7529 18.4147 19.9993 17.8428 20Z" fill="white"/>
</svg>
