<svg width="20" height="20" viewBox="0 0 20 20" fill="none" xmlns="http://www.w3.org/2000/svg">
<path d="M19.5536 2.0895L14.1666 0.0115073C14.1435 0.00263951 14.119 -0.000533573 14.0947 0.00221268C14.0704 0.00495893 14.0469 0.0135574 14.026 0.0273993C14.005 0.0412413 13.9871 0.0599884 13.9735 0.0823135C13.9598 0.104639 13.9508 0.129996 13.947 0.156591C13.7912 1.18552 13.3092 2.12018 12.5868 2.79436C11.8643 3.46854 10.9483 3.83853 10.0017 3.83853C9.05498 3.83853 8.13898 3.46854 7.41657 2.79436C6.69416 2.12018 6.21217 1.18552 6.05631 0.156591C6.05265 0.129553 6.04357 0.103756 6.02971 0.081081C6.01586 0.058406 5.99758 0.039425 5.97622 0.025523C5.95486 0.011621 5.93096 0.00314874 5.90625 0.000723971C5.88154 -0.0017008 5.85665 0.00198316 5.83339 0.0115073L0.44639 2.0895C0.295612 2.14767 0.1688 2.26355 0.0890398 2.41608C0.00927953 2.5686 -0.0181255 2.74761 0.0118136 2.92052L0.70472 6.96081C0.731386 7.11481 0.802065 7.25537 0.906421 7.36193C1.01078 7.4685 1.14333 7.53548 1.28471 7.55308L3.32135 7.80652C3.40449 7.81685 3.48106 7.86125 3.53586 7.93091C3.59066 8.00057 3.61969 8.09039 3.61718 8.18254L3.31177 19.2428C3.30772 19.3854 3.34141 19.5262 3.40874 19.648C3.47607 19.7698 3.57412 19.8673 3.69093 19.9288C3.78802 19.9771 3.89355 20.0014 4.00009 19.9999H15.9999C16.1064 20.0014 16.212 19.9771 16.3091 19.9288C16.4259 19.8673 16.5239 19.7698 16.5913 19.648C16.6586 19.5262 16.6923 19.3854 16.6882 19.2428L16.3828 8.18254C16.3803 8.09039 16.4093 8.00057 16.4641 7.93091C16.5189 7.86125 16.5955 7.81685 16.6787 7.80652L18.7153 7.55308C18.8567 7.53548 18.9892 7.4685 19.0936 7.36193C19.1979 7.25537 19.2686 7.11481 19.2953 6.96081L19.9882 2.92052C20.0181 2.74761 19.9907 2.5686 19.911 2.41608C19.8312 2.26355 19.7044 2.14767 19.5536 2.0895Z" fill="white"/>
</svg>
