<svg width="20" height="20" viewBox="0 0 20 20" fill="none" xmlns="http://www.w3.org/2000/svg">
<path d="M19.5505 6.13393C19.4079 6.00057 19.2382 5.89482 19.0513 5.82278C18.8644 5.75075 18.6639 5.71387 18.4615 5.71429H15.3846V5C15.3846 3.67392 14.8173 2.40215 13.8075 1.46447C12.7977 0.526784 11.4281 0 10 0C8.57191 0 7.20231 0.526784 6.1925 1.46447C5.18269 2.40215 4.61538 3.67392 4.61538 5V5.71429H1.53846C1.13044 5.71429 0.739122 5.8648 0.450605 6.13271C0.162087 6.40061 0 6.76398 0 7.14286V16.7857C0 18.5268 1.58654 20 3.46154 20H16.5385C17.4454 20.0003 18.3165 19.671 18.9654 19.0826C19.2919 18.7933 19.552 18.4456 19.7298 18.0604C19.9076 17.6752 19.9995 17.2606 20 16.8415V7.14286C20.0006 6.95544 19.9612 6.76977 19.8841 6.59659C19.8069 6.42341 19.6935 6.26615 19.5505 6.13393ZM6.15384 5C6.15384 4.0528 6.55906 3.14439 7.28036 2.47462C8.00165 1.80485 8.97993 1.42857 10 1.42857C11.0201 1.42857 11.9983 1.80485 12.7196 2.47462C13.4409 3.14439 13.8461 4.0528 13.8461 5V5.71429H6.15384V5ZM15.3846 9.28571C15.3846 10.6118 14.8173 11.8836 13.8075 12.8212C12.7977 13.7589 11.4281 14.2857 10 14.2857C8.57191 14.2857 7.20231 13.7589 6.1925 12.8212C5.18269 11.8836 4.61538 10.6118 4.61538 9.28571V8.57143C4.61538 8.38199 4.69643 8.20031 4.84069 8.06635C4.98494 7.9324 5.1806 7.85714 5.38461 7.85714C5.58863 7.85714 5.78428 7.9324 5.92854 8.06635C6.0728 8.20031 6.15384 8.38199 6.15384 8.57143V9.28571C6.15384 10.2329 6.55906 11.1413 7.28036 11.8111C8.00165 12.4809 8.97993 12.8571 10 12.8571C11.0201 12.8571 11.9983 12.4809 12.7196 11.8111C13.4409 11.1413 13.8461 10.2329 13.8461 9.28571V8.57143C13.8461 8.38199 13.9272 8.20031 14.0715 8.06635C14.2157 7.9324 14.4114 7.85714 14.6154 7.85714C14.8194 7.85714 15.015 7.9324 15.1593 8.06635C15.3036 8.20031 15.3846 8.38199 15.3846 8.57143V9.28571Z" fill="white"/>
</svg>
